<svg width="24" height="24" viewBox="0 0 24 24" fill="none" xmlns="http://www.w3.org/2000/svg">
<path fill-rule="evenodd" clip-rule="evenodd" d="M12.122 0C8.94247 0 8.54379 0.013477 7.29508 0.070452C6.04897 0.127288 5.19792 0.325213 4.45325 0.614642C3.68339 0.913784 3.0305 1.3141 2.37961 1.96494C1.72877 2.61583 1.32846 3.26872 1.02932 4.03858C0.739886 4.78325 0.54196 5.6343 0.485125 6.88041C0.42815 8.12912 0.414673 8.5278 0.414673 11.7073C0.414673 14.8868 0.42815 15.2855 0.485125 16.5342C0.54196 17.7803 0.739886 18.6314 1.02932 19.3761C1.32846 20.1459 1.72877 20.7988 2.37961 21.4497C3.0305 22.1005 3.68339 22.5009 4.45325 22.8C5.19792 23.0894 6.04897 23.2873 7.29508 23.3442C8.54379 23.4012 8.94247 23.4146 12.122 23.4146C15.3015 23.4146 15.7002 23.4012 16.9489 23.3442C18.195 23.2873 19.0461 23.0894 19.7907 22.8C20.5606 22.5009 21.2135 22.1005 21.8644 21.4497C22.5152 20.7988 22.9155 20.1459 23.2147 19.3761C23.5041 18.6314 23.702 17.7803 23.7589 16.5342C23.8158 15.2855 23.8293 14.8868 23.8293 11.7073C23.8293 8.5278 23.8158 8.12912 23.7589 6.88041C23.702 5.6343 23.5041 4.78325 23.2147 4.03858C22.9155 3.26872 22.5152 2.61583 21.8644 1.96494C21.2135 1.3141 20.5606 0.913784 19.7907 0.614642C19.0461 0.325213 18.195 0.127288 16.9489 0.070452C15.7002 0.013477 15.3015 0 12.122 0ZM12.122 2.10939C15.248 2.10939 15.6183 2.12134 16.8528 2.17766C17.9942 2.22971 18.6141 2.42043 19.0266 2.58076C19.5731 2.79314 19.9631 3.04683 20.3727 3.45653C20.7824 3.86619 21.0361 4.25618 21.2485 4.80265C21.4088 5.21518 21.5996 5.83508 21.6516 6.97653C21.7079 8.21102 21.7199 8.58131 21.7199 11.7073C21.7199 14.8333 21.7079 15.2036 21.6516 16.438C21.5996 17.5795 21.4088 18.1994 21.2485 18.6119C21.0361 19.1584 20.7824 19.5484 20.3727 19.958C19.9631 20.3677 19.5731 20.6214 19.0266 20.8338C18.6141 20.9941 17.9942 21.1849 16.8528 21.2369C15.6184 21.2932 15.2482 21.3052 12.122 21.3052C8.99578 21.3052 8.62558 21.2932 7.39123 21.2369C6.24978 21.1849 5.62988 20.9941 5.21735 20.8338C4.67088 20.6214 4.28089 20.3677 3.87123 19.958C3.46158 19.5484 3.20784 19.1584 2.99546 18.6119C2.83513 18.1994 2.64441 17.5795 2.59236 16.438C2.53604 15.2036 2.5241 14.8333 2.5241 11.7073C2.5241 8.58131 2.53604 8.21102 2.59236 6.97653C2.64441 5.83508 2.83513 5.21518 2.99546 4.80265C3.20784 4.25618 3.46153 3.86619 3.87123 3.45653C4.28089 3.04683 4.67088 2.79314 5.21735 2.58076C5.62988 2.42043 6.24978 2.22971 7.39123 2.17766C8.62572 2.12134 8.99601 2.10939 12.122 2.10939ZM6.11013 11.7075C6.11013 8.38715 8.80171 5.69557 12.122 5.69557C15.4423 5.69557 18.1339 8.38715 18.1339 11.7075C18.1339 15.0277 15.4423 17.7193 12.122 17.7193C8.80171 17.7193 6.11013 15.0277 6.11013 11.7075ZM12.122 15.6098C9.96672 15.6098 8.21955 13.8626 8.21955 11.7074C8.21955 9.55211 9.96672 7.80494 12.122 7.80494C14.2773 7.80494 16.0244 9.55211 16.0244 11.7074C16.0244 13.8626 14.2773 15.6098 12.122 15.6098ZM18.3714 6.86283C19.1473 6.86283 19.7763 6.23387 19.7763 5.45797C19.7763 4.68207 19.1473 4.05307 18.3714 4.05307C17.5955 4.05307 16.9665 4.68207 16.9665 5.45797C16.9665 6.23387 17.5955 6.86283 18.3714 6.86283Z" fill="#F5F5F6"/>
</svg>