<svg width="17" height="18" viewBox="0 0 17 18" fill="none" xmlns="http://www.w3.org/2000/svg">
<path d="M8.49999 1.91666C5.75874 1.91666 3.54166 4.13375 3.54166 6.875C3.54166 10.5937 8.49999 16.0833 8.49999 16.0833C8.49999 16.0833 13.4583 10.5937 13.4583 6.875C13.4583 4.13375 11.2412 1.91666 8.49999 1.91666ZM4.95832 6.875C4.95832 4.92 6.54499 3.33333 8.49999 3.33333C10.455 3.33333 12.0417 4.92 12.0417 6.875C12.0417 8.915 10.0017 11.9679 8.49999 13.8733C7.02666 11.9821 4.95832 8.89375 4.95832 6.875Z" fill="black"/>
<path d="M8.49999 8.64583C9.47799 8.64583 10.2708 7.853 10.2708 6.875C10.2708 5.89699 9.47799 5.10416 8.49999 5.10416C7.52199 5.10416 6.72916 5.89699 6.72916 6.875C6.72916 7.853 7.52199 8.64583 8.49999 8.64583Z" fill="black"/>
</svg>